<svg xmlns="http://www.w3.org/2000/svg" width="477.87" height="477.87" viewBox="0 0 477.87 477.87"><title>edit</title><path d="M392.53,238.94A17.06,17.06,0,0,0,375.47,256V426.67a17.07,17.07,0,0,1-17.07,17.07H51.2a17.07,17.07,0,0,1-17.07-17.07V85.34A17.07,17.07,0,0,1,51.2,68.27H256a17.07,17.07,0,1,0,0-34.13H51.2A51.2,51.2,0,0,0,0,85.34V426.67a51.2,51.2,0,0,0,51.2,51.2H358.4a51.2,51.2,0,0,0,51.2-51.2V256A17.06,17.06,0,0,0,392.53,238.94Z" transform="translate(0 0)" style="fill:#fff"/><path d="M458.74,19.14a65.32,65.32,0,0,0-92.4,0L141.53,243.94a17.29,17.29,0,0,0-4.11,6.67L103.29,353a17.08,17.08,0,0,0,16.18,22.46,17.33,17.33,0,0,0,5.39-.87l102.4-34.13a17.15,17.15,0,0,0,6.67-4.13l224.8-224.81A65.33,65.33,0,0,0,458.74,19.14ZM434.6,87.42,212.74,309.29l-66.29,22.13,22.07-66.2,222-221.87A31.18,31.18,0,1,1,434.6,87.42Z" transform="translate(0 0)" style="fill:#fff"/></svg>