<svg xmlns="http://www.w3.org/2000/svg" width="460" height="742.02" viewBox="0 0 460 742.02"><title>pocket-sammy</title><path d="M402.5,300.44H387.55A332.28,332.28,0,0,0,375.26,250q-1.63-5-3.48-10t-3.85-10C335.05,148.66,258.23,55.23,81.46,15a7.44,7.44,0,0,0-7.57,2.59A7,7,0,0,0,73,25.13c18.35,40,41.81,114.09,25.93,210.3q-.36,2.28-.78,4.59-.64,3.67-1.38,7.4a431.82,431.82,0,0,1-14,53H67.17A420.27,420.27,0,0,0,82,246c.4-2,.78-4,1.14-5.93q.78-4.22,1.44-8.37C99.35,139.91,77,69.41,59.55,31.3a21.83,21.83,0,0,1,2.86-23A22.18,22.18,0,0,1,84.74.58C272.82,43.4,350.9,147.88,383.23,230q2,5.07,3.75,10t3.4,10A334.54,334.54,0,0,1,402.5,300.44Z" style="fill-rule:evenodd"/><path d="M303.54,158.49A7.38,7.38,0,0,1,291,160.94,342.76,342.76,0,0,0,167,73.31a7.39,7.39,0,1,1,5.91-13.55,357.5,357.5,0,0,1,129.25,91.48A7.41,7.41,0,0,1,303.54,158.49Z" style="fill-rule:evenodd"/><polygon points="450 240.02 444.33 320.02 15.68 320.02 10 240.02 450 240.02" style="fill:#0248ff;fill-rule:evenodd"/><path d="M15.67,320,40,663l190,69,190-69,24.33-343Z" style="fill:#0080ff;fill-rule:evenodd"/><path d="M457.32,233.2A10,10,0,0,0,450,230H130a10,10,0,0,0,0,20H439.26L435,310H25l-4.26-60H50a10,10,0,0,0,0-20H10A10,10,0,0,0,0,240.73l30,423a10,10,0,0,0,6.56,8.69l190,69a10,10,0,0,0,6.82,0l190-69a10,10,0,0,0,6.57-8.69l30-423A10,10,0,0,0,457.32,233.2ZM230,721.38,49.51,655.83,26.41,330H46.46l.75,10.66a10,10,0,0,0,10,9.29l.72,0a10,10,0,0,0,9.26-10.69L66.51,330h327l-.66,9.24A10,10,0,0,0,402.1,350l.72,0a10,10,0,0,0,10-9.29l.75-10.66h20L410.48,655.83Z"/><path d="M104.92,633.4l-18.8-6.82a10,10,0,0,0-6.83,18.8l18.8,6.82a10,10,0,1,0,6.83-18.8Z"/><path d="M74.87,589.35a10,10,0,0,0,9.27-10.68l-1.42-19.95a10,10,0,0,0-19.95,1.41l1.42,20a10,10,0,0,0,10,9.29Z"/><path d="M180.12,660.71l-18.8-6.83a10,10,0,0,0-6.83,18.8l18.8,6.83a10,10,0,0,0,6.83-18.8Z"/><path d="M69.22,509.55a10,10,0,0,0,9.26-10.69l-1.41-19.94a10,10,0,1,0-19.95,1.41l1.41,19.95a10,10,0,0,0,10,9.29C68.73,509.58,69,509.56,69.22,509.55Z"/><path d="M63.55,429.75a10,10,0,0,0,9.27-10.69L71.4,399.11a10,10,0,0,0-20,1.42l1.42,20a10,10,0,0,0,10,9.29C63.07,429.77,63.31,429.77,63.55,429.75Z"/><path d="M373.87,626.58l-18.79,6.82a10,10,0,1,0,6.82,18.8l18.8-6.82a10,10,0,0,0-6.83-18.8Z"/><path d="M399.27,389.85a10,10,0,0,0-10.68,9.26l-1.42,20a10,10,0,0,0,9.27,10.68c.24,0,.48,0,.72,0a10,10,0,0,0,10-9.29l1.41-20A10,10,0,0,0,399.27,389.85Z"/><path d="M393.61,469.65a10,10,0,0,0-10.68,9.27l-1.42,19.94a10,10,0,0,0,9.27,10.69l.72,0a10,10,0,0,0,10-9.3l1.41-19.95A10,10,0,0,0,393.61,469.65Z"/><path d="M388,549.45a10,10,0,0,0-10.68,9.27l-1.41,19.95a10,10,0,0,0,9.26,10.68l.72,0a10,10,0,0,0,10-9.29l1.41-20A10,10,0,0,0,388,549.45Z"/><path d="M298.68,653.88l-18.8,6.83a10,10,0,1,0,6.82,18.8l18.8-6.83a10,10,0,1,0-6.82-18.8Z"/><path d="M230,679.46a10,10,0,0,0-10,10h0a10,10,0,1,0,10-10Z"/><path d="M81.46,15a7.44,7.44,0,0,0-7.57,2.59A7,7,0,0,0,73,25.13c18.35,40,41.81,114.09,25.93,210.3A9.83,9.83,0,0,1,100,240h20a10,10,0,0,1,10-10H367.93C335.05,148.66,258.23,55.23,81.46,15ZM298,163.34a7.39,7.39,0,0,1-7-2.4A342.76,342.76,0,0,0,167,73.31a7.39,7.39,0,1,1,5.91-13.55,357.5,357.5,0,0,1,129.25,91.48,7.38,7.38,0,0,1-4.15,12.1Z" style="fill:#5b6987"/><path d="M100,240a10,10,0,1,1-10-10h0a10,10,0,0,1,8.88,5.41A9.83,9.83,0,0,1,100,240Z"/></svg>