<svg xmlns="http://www.w3.org/2000/svg" width="416" height="512" viewBox="0 0 416 512"><title>trash</title><path d="M424,64H336V48A48.05,48.05,0,0,0,288,0H224a48.05,48.05,0,0,0-48,48V64H88a40,40,0,0,0-40,40v56a16,16,0,0,0,16,16h8.74L86.57,466.28A47.94,47.94,0,0,0,134.51,512h243a47.94,47.94,0,0,0,47.94-45.72L439.26,176H448a16,16,0,0,0,16-16V104a40,40,0,0,0-40-40ZM208,48a16,16,0,0,1,16-16h64a16,16,0,0,1,16,16V64H208ZM80,104a8,8,0,0,1,8-8H424a8,8,0,0,1,8,8v40H80ZM393.47,464.76a16,16,0,0,1-16,15.24h-243a16,16,0,0,1-16-15.24L104.78,176H407.22Z" transform="translate(-48 0)" style="fill:#fff"/><path d="M256,448a16,16,0,0,0,16-16V224a16,16,0,0,0-32,0V432A16,16,0,0,0,256,448Z" transform="translate(-48 0)" style="fill:#fff"/><path d="M336,448a16,16,0,0,0,16-16V224a16,16,0,0,0-32,0V432A16,16,0,0,0,336,448Z" transform="translate(-48 0)" style="fill:#fff"/><path d="M176,448a16,16,0,0,0,16-16V224a16,16,0,0,0-32,0V432A16,16,0,0,0,176,448Z" transform="translate(-48 0)" style="fill:#fff"/></svg>